<?xml version="1.0" standalone="no"?>
<!DOCTYPE svg PUBLIC "-//W3C//DTD SVG 20010904//EN"
 "http://www.w3.org/TR/2001/REC-SVG-20010904/DTD/svg10.dtd">
<svg version="1.0" xmlns="http://www.w3.org/2000/svg"
 width="500.000000pt" height="500.000000pt" viewBox="0 0 500.000000 500.000000"
 preserveAspectRatio="xMidYMid meet">

<g transform="translate(0.000000,500.000000) scale(0.100000,-0.100000)"
fill="#000000" stroke="none">
<path d="M3164 4099 c-45 -13 -116 -79 -143 -134 -26 -52 -46 -198 -36 -269 6
-45 18 -44 -145 -1 -464 124 -1002 -34 -1316 -386 -172 -193 -268 -381 -326
-640 -30 -138 -33 -398 -4 -529 38 -175 124 -382 209 -504 24 -34 43 -69 41
-78 -1 -8 5 -15 13 -14 8 0 19 -9 24 -22 6 -15 5 -21 -1 -17 -6 3 -10 13 -10
21 0 10 -5 12 -12 7 -7 -4 -20 -6 -28 -5 -9 1 -26 -7 -38 -18 l-22 -21 -10 26
c-12 33 -18 32 -14 -2 2 -16 1 -20 -2 -10 -3 9 -10 17 -15 17 -6 0 -7 -10 -4
-22 7 -23 7 -23 -8 -3 -11 14 -12 22 -4 27 6 4 8 10 4 15 -5 4 -12 1 -17 -7
-8 -13 -14 -8 -12 11 1 3 -5 6 -13 6 -10 0 -8 -8 8 -28 12 -15 33 -42 47 -60
86 -114 164 -190 278 -272 111 -80 242 -154 242 -137 0 6 5 8 10 5 6 -4 8 -10
5 -15 -3 -4 2 -10 10 -13 9 -4 12 -1 8 9 -3 8 0 20 6 28 6 7 9 16 6 20 -3 3 1
1 7 -4 10 -8 10 -13 1 -18 -8 -5 -9 -13 -3 -22 8 -13 10 -12 10 2 0 9 8 22 18
27 9 6 11 11 5 11 -7 0 -13 5 -13 11 0 5 5 7 10 4 6 -3 17 0 25 8 12 12 20 13
39 4 17 -8 21 -14 13 -20 -8 -6 -5 -7 6 -3 10 3 24 6 30 6 7 1 -1 7 -18 15
l-30 13 45 -3 c25 -2 36 -1 25 2 -39 11 -68 24 -63 28 2 3 49 -8 104 -24 154
-44 236 -56 394 -56 160 0 233 11 390 57 329 96 628 348 786 660 99 196 142
360 151 573 8 216 -30 399 -124 595 l-36 75 -12 -29 -12 -28 -6 47 c-4 26 -7
157 -7 291 l0 244 -32 0 c-38 0 -35 20 -37 -221 -1 -122 -3 -149 -14 -141 -17
14 -42 -1 -34 -21 4 -12 1 -14 -11 -10 -9 4 -20 11 -24 17 -4 6 -7 96 -7 201
-1 104 -4 226 -7 270 -5 73 -4 83 18 115 83 123 269 66 268 -82 -1 -18 -7 -44
-15 -58 -11 -19 -14 -65 -15 -182 l0 -157 53 -74 c28 -41 58 -83 65 -93 10
-15 11 46 9 321 -3 298 -5 345 -20 380 -40 90 -87 116 -215 121 l-95 3 -59 65
c-45 50 -71 69 -114 85 -57 22 -127 26 -180 10z m145 -144 c40 -20 79 -70 87
-109 4 -24 0 -48 -15 -81 -19 -44 -21 -66 -21 -268 l0 -221 -40 39 c-39 38
-40 41 -40 105 0 37 -3 115 -7 173 -6 104 -7 107 -30 107 l-23 0 0 -146 0
-145 -40 28 -40 28 0 130 c0 106 -3 135 -17 155 -24 35 -23 112 3 147 49 66
123 90 183 58z m-619 -366 c97 -12 204 -40 246 -63 l29 -17 -30 4 c-16 2 -24
2 -17 0 6 -3 12 -8 12 -13 0 -5 8 -11 18 -13 9 -3 -30 -5 -88 -5 -74 -1 -112
3 -130 13 -37 21 -376 21 -427 0 -36 -15 -151 -19 -208 -6 -28 6 -26 8 47 39
71 30 162 55 233 65 62 8 234 7 315 -4z m-816 -115 c36 -35 9 -94 -43 -94 -34
0 -51 17 -51 51 0 34 24 59 55 59 13 0 31 -7 39 -16z m1204 -110 c20 -8 50
-27 65 -42 56 -53 57 -61 57 -322 -1 -131 -5 -242 -9 -245 -5 -2 -9 1 -8 8 0
6 -1 38 -1 70 l-2 58 -82 -7 c-46 -4 -86 -12 -90 -18 -4 -6 -8 71 -8 172 l0
182 -95 0 -95 0 0 -110 0 -110 -26 0 c-26 0 -106 -38 -113 -54 -2 -4 -7 -3
-11 4 -12 19 -32 1 -25 -23 6 -20 5 -21 -8 -5 -15 19 -33 251 -21 281 5 15 -4
17 -90 17 l-96 0 0 -270 0 -270 -70 0 -70 0 6 -42 c3 -24 7 -49 10 -55 6 -23
-12 -14 -34 17 -19 25 -22 42 -22 128 0 54 -3 187 -7 296 l-6 197 -50 -3 c-83
-5 -85 -11 -93 -289 -4 -130 -4 -252 0 -272 5 -29 27 -53 122 -137 63 -57 132
-116 153 -134 110 -88 321 -281 327 -298 10 -31 -22 -70 -56 -66 -26 3 -296
225 -565 466 l-90 81 -6 -72 c-3 -40 -6 112 -7 336 -2 438 -1 448 49 493 61
54 48 53 557 54 405 0 478 -2 510 -16z m-1229 -121 c0 -96 -1 -98 -30 -121
l-29 -24 0 121 0 121 30 0 30 0 -1 -97z m-157 0 c40 -36 9 -103 -47 -103 -35
0 -65 28 -65 60 0 9 7 26 16 38 18 27 69 30 96 5z m-14 -199 c22 -15 22 -19
22 -228 l0 -212 43 -40 c23 -22 96 -86 162 -143 136 -118 145 -128 145 -153 0
-22 -34 -58 -55 -58 -9 0 -52 33 -98 73 -45 40 -128 112 -185 160 -56 49 -109
101 -117 117 -12 23 -15 73 -15 249 0 216 0 220 22 235 12 9 29 16 38 16 9 0
26 -7 38 -16z m1740 -3 c104 -54 138 -148 116 -315 l-7 -46 -78 0 -79 0 0 190
c0 105 2 190 5 190 3 0 22 -9 43 -19z m-778 -147 c0 -2 -7 -4 -15 -4 -8 0 -15
4 -15 10 0 5 7 7 15 4 8 -4 15 -8 15 -10z m-1176 -54 c35 -13 60 -54 52 -85
-16 -64 -86 -86 -131 -40 -35 35 -33 76 6 109 34 29 38 30 73 16z m1306 -145
c32 -17 46 -51 36 -90 -6 -25 -51 -55 -81 -55 -26 0 -65 46 -65 77 1 31 15 54
45 71 26 15 31 15 65 -3z m-1299 -85 c39 -21 12 -100 -34 -100 -30 0 -57 29
-57 61 0 42 47 62 91 39z m1190 -82 c27 -22 49 -47 49 -54 0 -7 -27 -45 -61
-83 -70 -81 -93 -88 -140 -42 -44 45 -39 75 27 154 32 37 61 67 66 67 5 0 32
-19 59 -42z m324 -13 c14 -13 25 -36 25 -50 0 -36 -42 -75 -80 -75 -44 0 -84
42 -76 78 9 35 50 72 82 72 14 0 36 -11 49 -25z m-1324 -167 c77 -68 175 -154
219 -193 43 -38 112 -99 152 -134 40 -35 114 -101 163 -147 50 -45 104 -92
120 -105 17 -12 62 -52 100 -88 83 -78 290 -260 358 -316 27 -22 55 -53 63
-68 14 -25 14 -31 0 -51 -8 -13 -24 -26 -36 -29 -24 -6 -62 25 -405 338 -120
110 -255 232 -300 270 -107 92 -222 194 -316 280 -42 39 -133 121 -203 184
-69 63 -126 120 -126 128 0 18 36 53 55 53 9 0 79 -55 156 -122z m1195 8 l48
-43 -26 -39 c-50 -74 -94 -114 -126 -114 -44 0 -82 34 -82 75 0 27 12 48 56
99 30 36 61 66 69 66 7 0 35 -20 61 -44z m307 -6 c34 -27 41 -53 23 -88 -17
-33 -34 -42 -75 -42 -63 0 -87 84 -37 127 33 28 56 29 89 3z m-1650 -152 c207
-192 187 -163 187 -272 0 -73 -4 -98 -16 -110 -18 -19 -20 -19 -45 -6 -16 9
-19 22 -19 93 l0 83 -92 84 c-50 47 -108 97 -128 113 -66 48 -89 105 -52 126
9 6 21 11 25 11 4 0 67 -55 140 -122z m1535 -7 c23 -19 42 -40 42 -46 0 -23
-104 -146 -128 -152 -51 -12 -111 48 -99 98 9 34 116 151 130 142 7 -4 31 -23
55 -42z m310 -17 c33 -23 31 -86 -4 -113 -15 -12 -34 -21 -44 -21 -34 0 -70
39 -70 76 0 63 65 95 118 58z m-1042 -111 c61 -54 196 -172 300 -263 104 -91
190 -168 192 -172 2 -3 27 -25 56 -47 49 -38 57 -41 117 -41 l65 0 50 53 c56
58 250 278 303 345 39 48 68 60 103 41 31 -16 38 -28 38 -64 0 -24 -26 -60
-131 -180 -187 -215 -255 -284 -294 -301 -42 -17 -207 -19 -238 -2 -30 16
-295 246 -476 414 -42 39 -116 103 -164 143 -103 85 -118 108 -93 146 28 43
54 32 172 -72z m928 -52 c44 -45 47 -34 -32 -128 -37 -45 -49 -53 -77 -53 -25
0 -40 8 -59 31 -14 17 -26 39 -26 50 0 10 27 50 61 89 68 79 68 79 133 11z
m-392 -48 c93 -76 178 -157 183 -174 9 -28 -20 -69 -49 -69 -37 0 -246 189
-246 222 0 20 33 48 56 48 12 0 37 -12 56 -27z m-1364 -9 c19 -13 22 -24 22
-77 l0 -63 110 -99 c105 -94 116 -111 96 -143 -5 -9 -3 -12 5 -10 8 1 15 0 17
-5 6 -20 -1 -27 -28 -27 -19 0 -30 5 -30 14 0 8 -12 24 -27 36 -16 12 -67 60
-115 106 -83 81 -88 88 -88 127 0 31 -5 45 -20 55 -24 15 -27 64 -4 86 19 20
34 20 62 0z m372 -236 c0 -75 -1 -78 -23 -78 -40 0 -47 18 -47 117 l0 94 35
-28 c35 -28 35 -29 35 -105z m201 -171 c2 -69 -15 -96 -50 -78 -19 11 -21 20
-21 107 l0 95 35 -33 c31 -30 35 -39 36 -91z m-264 -13 c-3 -3 -12 -4 -19 -1
-8 3 -5 6 6 6 11 1 17 -2 13 -5z m443 -110 c0 -44 -3 -54 -20 -59 -38 -12 -50
11 -50 96 l0 79 35 -31 c32 -29 35 -37 35 -85z m-769 69 c13 -16 12 -17 -3 -4
-10 7 -18 15 -18 17 0 8 8 3 21 -13z m413 -39 c21 -21 20 -40 -4 -64 -24 -24
-38 -25 -62 -3 -21 18 -24 53 -6 71 17 17 54 15 72 -4z m186 -84 c24 -24 25
-38 4 -68 -18 -26 -50 -28 -76 -5 -22 20 -23 51 -1 75 21 24 48 23 73 -2z
m358 -60 c7 0 12 -4 12 -9 0 -12 60 -32 73 -24 6 3 7 1 3 -5 -4 -6 1 -10 11
-9 20 1 73 -31 73 -44 0 -5 -46 -9 -102 -9 -91 0 -104 2 -125 22 -19 18 -23
32 -23 82 l0 60 33 -32 c18 -18 38 -32 45 -32z m-694 -8 c3 -5 -1 -9 -9 -9 -8
0 -12 4 -9 9 3 4 7 8 9 8 2 0 6 -4 9 -8z m514 -4 c17 -17 15 -64 -4 -82 -19
-20 -34 -20 -62 0 -40 28 -22 94 26 94 16 0 33 -5 40 -12z m-325 -110 c37 -18
67 -39 67 -47 0 -11 -3 -11 -18 3 -11 9 -45 30 -77 46 -78 40 -58 38 28 -2z"/>
<path d="M3210 3870 c-39 -39 -14 -100 42 -100 51 0 78 69 40 103 -25 23 -58
21 -82 -3z"/>
<path d="M1806 3443 c-4 -9 0 -23 8 -32 14 -13 18 -13 36 4 15 14 17 21 9 32
-16 18 -46 16 -53 -4z"/>
<path d="M1613 3214 c-7 -20 8 -48 29 -52 26 -5 50 26 38 49 -13 23 -58 25
-67 3z"/>
<path d="M1612 3018 c-16 -16 -16 -31 1 -21 6 4 23 6 36 4 16 -2 22 2 19 11
-6 18 -40 22 -56 6z"/>
<path d="M1600 2784 c0 -13 7 -15 33 -10 17 3 38 7 45 8 6 1 12 5 12 10 0 4
-20 8 -45 8 -35 0 -45 -4 -45 -16z"/>
<path d="M1408 2809 c-37 -21 -17 -86 29 -94 50 -8 75 77 27 95 -31 12 -34 12
-56 -1z"/>
<path d="M1417 2593 c-4 -3 -7 -17 -7 -30 0 -27 30 -32 50 -8 20 24 -21 61
-43 38z"/>
<path d="M3280 2150 c-23 -23 -24 -33 -10 -61 13 -23 53 -25 74 -3 19 19 20
35 4 56 -22 26 -47 29 -68 8z"/>
<path d="M3438 1956 c-37 -39 -53 -63 -55 -83 -1 -13 3 -23 9 -23 7 0 6 -6 -2
-15 -10 -12 -10 -15 1 -15 31 0 60 13 56 24 -3 7 13 20 34 29 43 19 50 43 22
77 -20 23 -46 26 -65 6z m-18 -60 c0 -11 -19 -15 -25 -6 -3 5 1 10 9 10 9 0
16 -2 16 -4z"/>
<path d="M3345 1840 c3 -5 8 -10 11 -10 2 0 4 5 4 10 0 6 -5 10 -11 10 -5 0
-7 -4 -4 -10z"/>
<path d="M1436 1924 c-8 -21 1 -34 25 -34 24 0 37 29 18 41 -21 13 -36 11 -43
-7z"/>
<path d="M1835 1431 c-3 -5 0 -13 6 -17 7 -4 9 -3 5 4 -3 5 0 13 6 15 9 4 10
6 1 6 -6 1 -14 -3 -18 -8z"/>
<path d="M2003 1344 c-7 -20 22 -45 43 -37 8 3 14 16 14 29 0 19 -5 24 -25 24
-15 0 -28 -7 -32 -16z"/>
<path d="M2190 1276 c-18 -22 -5 -48 22 -44 17 2 23 10 23 28 0 29 -26 38 -45
16z"/>
<path d="M3565 3726 c-29 -29 -31 -43 -9 -74 23 -33 83 -27 103 10 14 25 14
29 -5 55 -28 37 -58 40 -89 9z"/>
<path d="M3971 2164 c0 -11 3 -14 6 -6 3 7 2 16 -1 19 -3 4 -6 -2 -5 -13z"/>
<path d="M3954 2134 c3 -8 6 -21 6 -27 0 -7 4 -6 10 3 14 21 12 27 -6 34 -12
5 -15 2 -10 -10z"/>
<path d="M3816 2105 c-9 -26 -7 -32 5 -12 6 10 9 21 6 23 -2 3 -7 -2 -11 -11z"/>
<path d="M3920 2100 c0 -5 -8 -10 -17 -10 -13 0 -14 -3 -5 -8 8 -6 1 -14 -23
-25 -20 -10 -34 -21 -32 -25 6 -8 -13 -26 -31 -29 -6 -2 -9 4 -6 12 4 8 10 12
15 9 16 -9 10 13 -7 27 -13 11 -15 11 -13 -2 1 -7 -1 -23 -6 -34 -4 -11 -23
-60 -43 -110 -60 -155 -141 -290 -235 -392 -23 -25 -36 -47 -31 -54 4 -7 3 -9
-3 -6 -11 7 -76 -56 -68 -66 3 -4 2 -5 -2 -2 -9 7 -43 -25 -43 -41 0 -7 -6
-11 -13 -8 -7 2 -22 -6 -33 -18 l-19 -23 21 18 c11 9 24 17 29 17 4 0 1 -8 -6
-17 -13 -17 -13 -17 7 -1 13 11 30 16 47 12 26 -4 27 -3 17 16 -6 11 -15 18
-21 15 -5 -4 -6 -12 -3 -18 4 -8 2 -7 -7 1 -12 11 -12 14 1 22 19 13 30 12 30
0 0 -5 16 -27 35 -48 19 -22 31 -43 27 -47 -4 -4 2 -3 14 3 34 18 178 176 240
263 95 136 179 326 219 495 14 59 3 82 -22 48 -13 -18 -14 -17 -8 9 4 15 4 27
1 27 -3 0 -6 -4 -6 -10z m-395 -798 c-3 -3 -11 0 -18 7 -9 10 -8 11 6 5 10 -3
15 -9 12 -12z m-20 -21 c-6 -5 -25 10 -25 20 0 5 6 4 14 -3 8 -7 12 -15 11
-17z"/>
<path d="M3440 1301 c0 -6 4 -13 10 -16 6 -3 7 1 4 9 -7 18 -14 21 -14 7z"/>
</g>
</svg>
